<svg id="Layer_1" data-name="Layer 1" xmlns="http://www.w3.org/2000/svg" viewBox="0 0 406 406"><defs><style>.cls-1{fill:#fff;}</style></defs><title>Untitled-7</title><path class="cls-1" d="M512.5,181.5a202.88,202.88,0,0,0-172.36,95.7l-25.43,61.4a203.55,203.55,0,0,0-5.21,45.9c0,112.11,90.89,203,203,203s203-90.89,203-203-90.89-203-203-203m0,11.8a2.36,2.36,0,1,1,2.36-2.36,2.36,2.36,0,0,1-2.36,2.36M529,198.74h-.21A2.36,2.36,0,0,1,529,194h.2a2.36,2.36,0,0,1-.2,4.71m-32.92,0a2.36,2.36,0,0,1-.2-4.71h.2a2.36,2.36,0,0,1,.21,4.71H496m65.31,8.08a4.73,4.73,0,1,1,0-9.45,4.66,4.66,0,0,1,1.22.17,4.72,4.72,0,0,1-1.21,9.28m-97.76,0a4.71,4.71,0,1,1,1.23-.16,4.73,4.73,0,0,1-1.23.16m-24.91,20.75a1.42,1.42,0,0,1-.6-2.7,174.61,174.61,0,0,1,59.09-15.8h.13a1.42,1.42,0,0,1,.11,2.83,171.88,171.88,0,0,0-58.13,15.55,1.41,1.41,0,0,1-.6.13M512.5,552.09A167.59,167.59,0,1,1,680.09,384.5,167.59,167.59,0,0,1,512.5,552.09M369.42,285.72a1.35,1.35,0,0,1-.81-.26,1.41,1.41,0,0,1-.35-2,176.3,176.3,0,0,1,43.25-43.25,1.41,1.41,0,1,1,1.62,2.32,173.6,173.6,0,0,0-42.55,42.56,1.42,1.42,0,0,1-1.16.6M676,294.8a4.72,4.72,0,1,1,2.36-.63,4.7,4.7,0,0,1-2.36.63M349,294.8a4.72,4.72,0,1,1,0-9.44,4.66,4.66,0,0,1,2.35.63A4.72,4.72,0,0,1,349,294.8m345.91,45.55a4.75,4.75,0,1,1,1.22-.17,4.72,4.72,0,0,1-1.22.17m-364.8,0a4.73,4.73,0,1,1,4.56-3.5,4.74,4.74,0,0,1-4.56,3.5m371.27,48.87a4.72,4.72,0,1,1,4.72-4.72,4.72,4.72,0,0,1-4.72,4.72m-6.47,48.88a4.73,4.73,0,1,1,4.56-3.5,4.72,4.72,0,0,1-4.56,3.5m-364.81,0a4.75,4.75,0,1,1,1.23-.17,4.71,4.71,0,0,1-1.23.17m242.22,112a1.42,1.42,0,0,1-1.34-.93,1.44,1.44,0,0,1,.85-1.82,172.53,172.53,0,0,0,52.1-30.12,1.36,1.36,0,0,1,.91-.33,1.42,1.42,0,0,1,.91,2.5,175.66,175.66,0,0,1-53,30.62,1.61,1.61,0,0,1-.48.08m34.64,2.66a4.72,4.72,0,0,1-2.36-8.81,4.66,4.66,0,0,1,2.35-.63,4.72,4.72,0,0,1,2.37,8.81,4.8,4.8,0,0,1-2.36.63m-45.58,18.86a4.72,4.72,0,1,1,1.22-.16,4.65,4.65,0,0,1-1.22.16m-97.74,0a4.72,4.72,0,1,1,4.55-3.5,4.72,4.72,0,0,1-4.55,3.5m48.9,6.44a4.72,4.72,0,1,1,4.72-4.72,4.72,4.72,0,0,1-4.72,4.72" transform="translate(-309.5 -181.5)"/></svg>