<svg xmlns="http://www.w3.org/2000/svg" xmlns:xlink="http://www.w3.org/1999/xlink" viewBox="0 0 104.36 545"><defs><style>.cls-1{fill:none;}.cls-2{clip-path:url(#clip-path);}.cls-3{fill:#fff;}</style><clipPath id="clip-path" transform="translate(0 0)"><rect class="cls-1" width="104.36" height="545"/></clipPath></defs><title>Asset 4</title><g id="Layer_2" data-name="Layer 2"><g id="Layer_1-2" data-name="Layer 1"><g class="cls-2"><path class="cls-3" d="M74.21,487l.58,23.19a.58.58,0,1,0,1.16,0L76.53,487V475.43L76,452.23a.58.58,0,0,0-1.16,0l-.58,23.2Zm-3.53-47a1.17,1.17,0,0,1,1.17,1.18A1.18,1.18,0,0,0,73,442.36h4.7a1.17,1.17,0,0,0,1.17-1.17A1.18,1.18,0,0,1,80.06,440a1.17,1.17,0,0,0,1.11-.79V519a40.21,40.21,0,0,1-.4,5.69l-2.52,17.8a2.9,2.9,0,0,1-5.76,0L70,524.64a41.75,41.75,0,0,1-.4-5.69V439.22a1.17,1.17,0,0,0,1.11.79" transform="translate(0 0)"/><path class="cls-3" d="M27.83,487l.58,23.19a.58.58,0,1,0,1.16,0L30.15,487V475.43l-.58-23.2a.58.58,0,0,0-1.16,0l-.58,23.2V487ZM24.3,440a1.18,1.18,0,0,1,1.17,1.18,1.17,1.17,0,0,0,1.17,1.17h4.7a1.18,1.18,0,0,0,1.17-1.17A1.17,1.17,0,0,1,33.68,440a1.17,1.17,0,0,0,1.11-.79V519a41.75,41.75,0,0,1-.4,5.69l-2.52,17.8a2.9,2.9,0,0,1-5.76,0l-2.52-17.8a41.75,41.75,0,0,1-.4-5.69V439.22a1.17,1.17,0,0,0,1.11.79" transform="translate(0 0)"/><path class="cls-3" d="M33.68,427.11a1.17,1.17,0,0,1-1.17-1.18,1.17,1.17,0,0,0-1.17-1.17,1.18,1.18,0,0,1-1.18-1.17V402.47a1.18,1.18,0,0,1,1.18-1.18,1.17,1.17,0,0,0,1.17-1.17A1.17,1.17,0,0,1,33.68,399a1.18,1.18,0,0,0,1.11-.79V427.9a1.17,1.17,0,0,0-1.11-.79" transform="translate(0 0)"/><path class="cls-3" d="M24.3,399a1.17,1.17,0,0,1,1.17,1.17,1.17,1.17,0,0,0,1.17,1.17,1.18,1.18,0,0,1,1.18,1.18v21.12a1.18,1.18,0,0,1-1.18,1.17,1.17,1.17,0,0,0-1.17,1.17,1.18,1.18,0,0,1-1.17,1.18,1.17,1.17,0,0,0-1.11.79V398.15a1.18,1.18,0,0,0,1.11.8" transform="translate(0 0)"/><path class="cls-3" d="M70.68,399a1.17,1.17,0,0,1,1.17,1.17A1.17,1.17,0,0,0,73,401.29a1.18,1.18,0,0,1,1.18,1.18v21.12A1.18,1.18,0,0,1,73,424.76a1.17,1.17,0,0,0-1.17,1.17,1.17,1.17,0,0,1-1.17,1.18,1.17,1.17,0,0,0-1.11.79V398.15a1.18,1.18,0,0,0,1.11.8" transform="translate(0 0)"/><path class="cls-3" d="M80.07,427.11a1.18,1.18,0,0,1-1.18-1.18,1.17,1.17,0,0,0-1.17-1.17,1.17,1.17,0,0,1-1.17-1.17V402.47a1.17,1.17,0,0,1,1.17-1.18,1.17,1.17,0,0,0,1.17-1.17A1.17,1.17,0,0,1,80.07,399a1.18,1.18,0,0,0,1.1-.8V427.9a1.17,1.17,0,0,0-1.1-.79" transform="translate(0 0)"/><path class="cls-3" d="M92.77,113.06a2.9,2.9,0,1,0,2.9,2.9,2.9,2.9,0,0,0-2.9-2.9M77.11,123.49a1.74,1.74,0,0,0-3.48,0v19.72a1.74,1.74,0,0,0,3.48,0Zm-.58-42.32L76,58a.58.58,0,1,0-1.16,0l-.58,23.19v11.6L74.79,116A.58.58,0,1,0,76,116l.58-23.19ZM58,149a1.74,1.74,0,1,0,1.74,1.73A1.73,1.73,0,0,0,58,149M47,113.06a2.9,2.9,0,1,0,2.9,2.9,2.9,2.9,0,0,0-2.9-2.9M30.73,123.49a1.74,1.74,0,0,0-3.48,0v19.72a1.74,1.74,0,1,0,3.48,0Zm-.58-42.32L29.57,58a.58.58,0,0,0-1.16,0l-.58,23.19v11.6L28.41,116a.58.58,0,1,0,1.16,0l.58-23.19ZM12.18,149a1.74,1.74,0,1,0,1.74,1.73A1.73,1.73,0,0,0,12.18,149m88.61,5.23L84.57,170.46a11.56,11.56,0,0,0-3.4,8.19V386.83a1.17,1.17,0,0,0-1.1-.79,1.18,1.18,0,0,1-1.18-1.17,1.17,1.17,0,0,0-1.17-1.18,1.17,1.17,0,0,1-1.17-1.17h0V343.8h0a1.17,1.17,0,0,1,1.17-1.17,1.17,1.17,0,0,0,1.17-1.18v-9.38a1.17,1.17,0,0,0-1.17-1.18,1.17,1.17,0,0,1-1.17-1.17h0V172.5L76,149a.59.59,0,1,0-1.17,0L74.2,172.5V292.17h0v37.55A1.17,1.17,0,0,1,73,330.89a1.18,1.18,0,0,0-1.18,1.18v9.38h0A1.18,1.18,0,0,0,73,342.63a1.17,1.17,0,0,1,1.17,1.17v38.72A1.17,1.17,0,0,1,73,383.69a1.18,1.18,0,0,0-1.18,1.18A1.17,1.17,0,0,1,70.68,386a1.18,1.18,0,0,0-1.11.79V178.65a11.59,11.59,0,0,0-3.39-8.19L56.71,161a6.41,6.41,0,0,0-9.06,0l-9.47,9.47a11.59,11.59,0,0,0-3.39,8.19V386.83a1.17,1.17,0,0,0-1.11-.79,1.17,1.17,0,0,1-1.17-1.17,1.18,1.18,0,0,0-1.17-1.18,1.17,1.17,0,0,1-1.18-1.17h0V343.8h0a1.17,1.17,0,0,1,1.18-1.17,1.18,1.18,0,0,0,1.17-1.18v-9.38a1.18,1.18,0,0,0-1.17-1.18,1.17,1.17,0,0,1-1.18-1.17h0V172.5L29.58,149a.59.59,0,0,0-1.18,0l-.58,23.47V292.17h0v37.55a1.17,1.17,0,0,1-1.18,1.17,1.18,1.18,0,0,0-1.17,1.18v9.38h0a1.18,1.18,0,0,0,1.17,1.18,1.17,1.17,0,0,1,1.18,1.17v38.72a1.17,1.17,0,0,1-1.18,1.17,1.18,1.18,0,0,0-1.17,1.18A1.18,1.18,0,0,1,24.3,386a1.17,1.17,0,0,0-1.11.79V178.65a11.59,11.59,0,0,0-3.39-8.19L3.57,154.24A12.25,12.25,0,0,1,0,145.61V120.93a12.23,12.23,0,0,1,3.57-8.63L19.8,96.08a11.59,11.59,0,0,0,3.39-8.2V25.48a41.49,41.49,0,0,1,.4-5.68L26.11,2a2.92,2.92,0,0,1,1-1.85.61.61,0,0,1,1,.47L27.83,11V22.62l.58,23.76a.58.58,0,1,0,1.16,0l.58-23.76V11L29.89.62a.61.61,0,0,1,1-.47,2.92,2.92,0,0,1,1,1.85l2.52,17.8a41.49,41.49,0,0,1,.4,5.68v62.4a11.59,11.59,0,0,0,3.39,8.2l9.47,9.47a6.41,6.41,0,0,0,9.06,0l9.47-9.47a11.59,11.59,0,0,0,3.39-8.2V25.48A41.49,41.49,0,0,1,70,19.8L72.49,2a3,3,0,0,1,1-1.85.61.61,0,0,1,1,.47L74.21,11V22.62l.58,23.76a.58.58,0,1,0,1.16,0l.58-23.76V11L76.27.62a.61.61,0,0,1,1-.47,2.87,2.87,0,0,1,1,1.85l2.52,17.8a40,40,0,0,1,.4,5.68v62.4a11.56,11.56,0,0,0,3.4,8.2l16.22,16.22a12.19,12.19,0,0,1,3.57,8.63v24.68a12.21,12.21,0,0,1-3.57,8.63" transform="translate(0 0)"/></g></g></g></svg>