<svg xmlns="http://www.w3.org/2000/svg" xmlns:xlink="http://www.w3.org/1999/xlink" viewBox="0 0 370.06 294.33"><defs><style>.cls-1,.cls-3,.cls-98,.cls-99{fill:none;}.cls-2{clip-path:url(#clip-path);}.cls-3,.cls-98,.cls-99{stroke:#fff;}.cls-3,.cls-98{stroke-linejoin:round;}.cls-3{stroke-width:0.33px;}.cls-4{opacity:0.2;}.cls-5{clip-path:url(#clip-path-3);}.cls-6{clip-path:url(#clip-path-4);}.cls-7{clip-path:url(#clip-path-5);}.cls-8{clip-path:url(#clip-path-7);}.cls-9{clip-path:url(#clip-path-8);}.cls-10{clip-path:url(#clip-path-9);}.cls-11{clip-path:url(#clip-path-10);}.cls-12{clip-path:url(#clip-path-11);}.cls-13{clip-path:url(#clip-path-12);}.cls-14{clip-path:url(#clip-path-13);}.cls-15{clip-path:url(#clip-path-14);}.cls-16{clip-path:url(#clip-path-15);}.cls-17{clip-path:url(#clip-path-17);}.cls-18{clip-path:url(#clip-path-18);}.cls-19{clip-path:url(#clip-path-19);}.cls-20{clip-path:url(#clip-path-20);}.cls-21{clip-path:url(#clip-path-21);}.cls-22{clip-path:url(#clip-path-22);}.cls-23{clip-path:url(#clip-path-23);}.cls-24{clip-path:url(#clip-path-25);}.cls-25{clip-path:url(#clip-path-26);}.cls-26{clip-path:url(#clip-path-27);}.cls-27{clip-path:url(#clip-path-28);}.cls-28{clip-path:url(#clip-path-29);}.cls-29{clip-path:url(#clip-path-30);}.cls-30{clip-path:url(#clip-path-31);}.cls-31{clip-path:url(#clip-path-32);}.cls-32{clip-path:url(#clip-path-33);}.cls-33{clip-path:url(#clip-path-35);}.cls-34{clip-path:url(#clip-path-36);}.cls-35{clip-path:url(#clip-path-37);}.cls-36{clip-path:url(#clip-path-38);}.cls-37{clip-path:url(#clip-path-39);}.cls-38{clip-path:url(#clip-path-40);}.cls-39{clip-path:url(#clip-path-41);}.cls-40{clip-path:url(#clip-path-43);}.cls-41{clip-path:url(#clip-path-45);}.cls-42{clip-path:url(#clip-path-47);}.cls-43{clip-path:url(#clip-path-49);}.cls-44{clip-path:url(#clip-path-51);}.cls-45{clip-path:url(#clip-path-53);}.cls-46{clip-path:url(#clip-path-55);}.cls-47{clip-path:url(#clip-path-57);}.cls-48{clip-path:url(#clip-path-59);}.cls-49{clip-path:url(#clip-path-61);}.cls-50{clip-path:url(#clip-path-63);}.cls-51{clip-path:url(#clip-path-65);}.cls-52{clip-path:url(#clip-path-67);}.cls-53{clip-path:url(#clip-path-69);}.cls-54{clip-path:url(#clip-path-71);}.cls-55{clip-path:url(#clip-path-73);}.cls-56{clip-path:url(#clip-path-75);}.cls-57{clip-path:url(#clip-path-77);}.cls-58{clip-path:url(#clip-path-79);}.cls-59{clip-path:url(#clip-path-81);}.cls-60{clip-path:url(#clip-path-83);}.cls-61{clip-path:url(#clip-path-85);}.cls-62{clip-path:url(#clip-path-87);}.cls-63{clip-path:url(#clip-path-89);}.cls-64{clip-path:url(#clip-path-91);}.cls-65{clip-path:url(#clip-path-93);}.cls-66{clip-path:url(#clip-path-95);}.cls-67{clip-path:url(#clip-path-97);}.cls-68{clip-path:url(#clip-path-99);}.cls-69{clip-path:url(#clip-path-101);}.cls-70{clip-path:url(#clip-path-103);}.cls-71{clip-path:url(#clip-path-105);}.cls-72{clip-path:url(#clip-path-107);}.cls-73{clip-path:url(#clip-path-109);}.cls-74{clip-path:url(#clip-path-111);}.cls-75{clip-path:url(#clip-path-113);}.cls-76{clip-path:url(#clip-path-115);}.cls-77{clip-path:url(#clip-path-117);}.cls-78{clip-path:url(#clip-path-119);}.cls-79{clip-path:url(#clip-path-121);}.cls-80{clip-path:url(#clip-path-123);}.cls-81{clip-path:url(#clip-path-125);}.cls-82{clip-path:url(#clip-path-127);}.cls-83{clip-path:url(#clip-path-129);}.cls-84{clip-path:url(#clip-path-131);}.cls-85{clip-path:url(#clip-path-133);}.cls-86{clip-path:url(#clip-path-135);}.cls-87{clip-path:url(#clip-path-137);}.cls-88{clip-path:url(#clip-path-139);}.cls-89{clip-path:url(#clip-path-141);}.cls-90{clip-path:url(#clip-path-143);}.cls-91{clip-path:url(#clip-path-145);}.cls-92{clip-path:url(#clip-path-147);}.cls-93{clip-path:url(#clip-path-149);}.cls-94{clip-path:url(#clip-path-151);}.cls-95{clip-path:url(#clip-path-153);}.cls-96{clip-path:url(#clip-path-155);}.cls-97{fill:#fff;}.cls-98,.cls-99{stroke-width:0.67px;}.cls-99{stroke-linejoin:bevel;}</style><clipPath id="clip-path"><rect class="cls-1" x="0.33" width="369" height="294"/></clipPath><clipPath id="clip-path-3"><rect class="cls-1" x="57.12" width="0.33" height="294"/></clipPath><clipPath id="clip-path-4"><rect class="cls-1" x="57.12" width="0.33" height="294"/></clipPath><clipPath id="clip-path-5"><rect class="cls-1" x="61.52" width="0.33" height="294"/></clipPath><clipPath id="clip-path-7"><rect class="cls-1" x="65.92" width="0.33" height="294"/></clipPath><clipPath id="clip-path-8"><rect class="cls-1" x="65.92" width="0.33" height="294"/></clipPath><clipPath id="clip-path-9"><rect class="cls-1" x="70.31" width="0.33" height="294"/></clipPath><clipPath id="clip-path-10"><rect class="cls-1" x="70.31" width="0.33" height="294"/></clipPath><clipPath id="clip-path-11"><rect class="cls-1" x="74.71" width="0.33" height="294"/></clipPath><clipPath id="clip-path-12"><rect class="cls-1" x="74.71" width="0.33" height="294"/></clipPath><clipPath id="clip-path-13"><rect class="cls-1" x="79.11" width="0.33" height="294"/></clipPath><clipPath id="clip-path-14"><rect class="cls-1" x="79.11" width="0.33" height="294"/></clipPath><clipPath id="clip-path-15"><rect class="cls-1" x="83.51" width="0.33" height="294"/></clipPath><clipPath id="clip-path-17"><rect class="cls-1" x="87.9" width="0.33" height="294"/></clipPath><clipPath id="clip-path-18"><rect class="cls-1" x="87.9" width="0.33" height="294"/></clipPath><clipPath id="clip-path-19"><rect class="cls-1" x="92.3" width="0.33" height="294"/></clipPath><clipPath id="clip-path-20"><rect class="cls-1" x="92.3" width="0.33" height="294"/></clipPath><clipPath id="clip-path-21"><rect class="cls-1" x="96.7" width="0.33" height="294"/></clipPath><clipPath id="clip-path-22"><rect class="cls-1" x="96.7" width="0.33" height="294"/></clipPath><clipPath id="clip-path-23"><rect class="cls-1" x="101.1" width="0.33" height="294"/></clipPath><clipPath id="clip-path-25"><rect class="cls-1" x="4.55" width="0.33" height="294"/></clipPath><clipPath id="clip-path-26"><rect class="cls-1" x="4.55" width="0.33" height="294"/></clipPath><clipPath id="clip-path-27"><rect class="cls-1" x="8.93" width="0.33" height="294"/></clipPath><clipPath id="clip-path-28"><rect class="cls-1" x="8.93" width="0.33" height="294"/></clipPath><clipPath id="clip-path-29"><rect class="cls-1" x="13.31" width="0.33" height="294"/></clipPath><clipPath id="clip-path-30"><rect class="cls-1" x="13.31" width="0.33" height="294"/></clipPath><clipPath id="clip-path-31"><rect class="cls-1" x="17.69" width="0.33" height="294"/></clipPath><clipPath id="clip-path-32"><rect class="cls-1" x="17.69" width="0.33" height="294"/></clipPath><clipPath id="clip-path-33"><rect class="cls-1" x="22.07" width="0.33" height="294"/></clipPath><clipPath id="clip-path-35"><rect class="cls-1" x="26.44" width="0.33" height="294"/></clipPath><clipPath id="clip-path-36"><rect class="cls-1" x="26.44" width="0.33" height="294"/></clipPath><clipPath id="clip-path-37"><rect class="cls-1" x="30.82" width="0.33" height="294"/></clipPath><clipPath id="clip-path-38"><rect class="cls-1" x="30.82" width="0.33" height="294"/></clipPath><clipPath id="clip-path-39"><rect class="cls-1" x="35.2" width="0.33" height="294"/></clipPath><clipPath id="clip-path-40"><rect class="cls-1" x="35.2" width="0.33" height="294"/></clipPath><clipPath id="clip-path-41"><rect class="cls-1" x="39.58" width="0.33" height="294"/></clipPath><clipPath id="clip-path-43"><rect class="cls-1" x="43.96" width="0.33" height="294"/></clipPath><clipPath id="clip-path-45"><rect class="cls-1" x="48.34" width="0.33" height="294"/></clipPath><clipPath id="clip-path-47"><rect class="cls-1" x="109.89" width="0.33" height="294"/></clipPath><clipPath id="clip-path-49"><rect class="cls-1" x="114.29" width="0.33" height="294"/></clipPath><clipPath id="clip-path-51"><rect class="cls-1" x="118.69" width="0.33" height="294"/></clipPath><clipPath id="clip-path-53"><rect class="cls-1" x="123.09" width="0.33" height="294"/></clipPath><clipPath id="clip-path-55"><rect class="cls-1" x="127.48" width="0.33" height="294"/></clipPath><clipPath id="clip-path-57"><rect class="cls-1" x="131.88" width="0.33" height="294"/></clipPath><clipPath id="clip-path-59"><rect class="cls-1" x="136.28" width="0.33" height="294"/></clipPath><clipPath id="clip-path-61"><rect class="cls-1" x="140.68" width="0.33" height="294"/></clipPath><clipPath id="clip-path-63"><rect class="cls-1" x="145.07" width="0.33" height="294"/></clipPath><clipPath id="clip-path-65"><rect class="cls-1" x="149.47" width="0.33" height="294"/></clipPath><clipPath id="clip-path-67"><rect class="cls-1" x="153.87" width="0.33" height="294"/></clipPath><clipPath id="clip-path-69"><rect class="cls-1" x="162.66" width="0.33" height="294"/></clipPath><clipPath id="clip-path-71"><rect class="cls-1" x="167.06" width="0.33" height="294"/></clipPath><clipPath id="clip-path-73"><rect class="cls-1" x="171.46" width="0.33" height="294"/></clipPath><clipPath id="clip-path-75"><rect class="cls-1" x="175.86" width="0.33" height="294"/></clipPath><clipPath id="clip-path-77"><rect class="cls-1" x="180.25" width="0.33" height="294"/></clipPath><clipPath id="clip-path-79"><rect class="cls-1" x="184.65" width="0.33" height="294"/></clipPath><clipPath id="clip-path-81"><rect class="cls-1" x="189.05" width="0.33" height="294"/></clipPath><clipPath id="clip-path-83"><rect class="cls-1" x="193.45" width="0.33" height="294"/></clipPath><clipPath id="clip-path-85"><rect class="cls-1" x="197.85" width="0.33" height="294"/></clipPath><clipPath id="clip-path-87"><rect class="cls-1" x="202.24" width="0.33" height="294"/></clipPath><clipPath id="clip-path-89"><rect class="cls-1" x="206.64" width="0.33" height="294"/></clipPath><clipPath id="clip-path-91"><rect class="cls-1" x="215.44" width="0.33" height="294"/></clipPath><clipPath id="clip-path-93"><rect class="cls-1" x="219.83" width="0.33" height="294"/></clipPath><clipPath id="clip-path-95"><rect class="cls-1" x="224.23" width="0.33" height="294"/></clipPath><clipPath id="clip-path-97"><rect class="cls-1" x="228.63" width="0.33" height="294"/></clipPath><clipPath id="clip-path-99"><rect class="cls-1" x="233.03" width="0.33" height="294"/></clipPath><clipPath id="clip-path-101"><rect class="cls-1" x="237.42" width="0.33" height="294"/></clipPath><clipPath id="clip-path-103"><rect class="cls-1" x="241.82" width="0.33" height="294"/></clipPath><clipPath id="clip-path-105"><rect class="cls-1" x="246.22" width="0.33" height="294"/></clipPath><clipPath id="clip-path-107"><rect class="cls-1" x="250.62" width="0.33" height="294"/></clipPath><clipPath id="clip-path-109"><rect class="cls-1" x="255.01" width="0.33" height="294"/></clipPath><clipPath id="clip-path-111"><rect class="cls-1" x="259.41" width="0.33" height="294"/></clipPath><clipPath id="clip-path-113"><rect class="cls-1" x="268.21" width="0.33" height="294"/></clipPath><clipPath id="clip-path-115"><rect class="cls-1" x="272.6" width="0.33" height="294"/></clipPath><clipPath id="clip-path-117"><rect class="cls-1" x="277" width="0.33" height="294"/></clipPath><clipPath id="clip-path-119"><rect class="cls-1" x="281.4" width="0.33" height="294"/></clipPath><clipPath id="clip-path-121"><rect class="cls-1" x="285.8" width="0.33" height="294"/></clipPath><clipPath id="clip-path-123"><rect class="cls-1" x="290.2" width="0.33" height="294"/></clipPath><clipPath id="clip-path-125"><rect class="cls-1" x="294.59" width="0.33" height="294"/></clipPath><clipPath id="clip-path-127"><rect class="cls-1" x="298.99" width="0.33" height="294"/></clipPath><clipPath id="clip-path-129"><rect class="cls-1" x="303.39" width="0.33" height="294"/></clipPath><clipPath id="clip-path-131"><rect class="cls-1" x="307.79" width="0.33" height="294"/></clipPath><clipPath id="clip-path-133"><rect class="cls-1" x="312.18" width="0.33" height="294"/></clipPath><clipPath id="clip-path-135"><rect class="cls-1" x="320.96" width="0.33" height="294"/></clipPath><clipPath id="clip-path-137"><rect class="cls-1" x="325.35" width="0.33" height="294"/></clipPath><clipPath id="clip-path-139"><rect class="cls-1" x="329.73" width="0.33" height="294"/></clipPath><clipPath id="clip-path-141"><rect class="cls-1" x="334.11" width="0.33" height="294"/></clipPath><clipPath id="clip-path-143"><rect class="cls-1" x="338.49" width="0.33" height="294"/></clipPath><clipPath id="clip-path-145"><rect class="cls-1" x="342.87" width="0.33" height="294"/></clipPath><clipPath id="clip-path-147"><rect class="cls-1" x="347.26" width="0.33" height="294"/></clipPath><clipPath id="clip-path-149"><rect class="cls-1" x="351.64" width="0.33" height="294"/></clipPath><clipPath id="clip-path-151"><rect class="cls-1" x="356.02" width="0.33" height="294"/></clipPath><clipPath id="clip-path-153"><rect class="cls-1" x="360.4" width="0.33" height="294"/></clipPath><clipPath id="clip-path-155"><rect class="cls-1" x="364.78" width="0.33" height="294"/></clipPath></defs><title>Asset 2</title><g id="Layer_2" data-name="Layer 2"><g id="Layer_1-2" data-name="Layer 1"><g class="cls-2"><g class="cls-2"><line class="cls-3" x1="52.89" x2="52.89" y2="294"/><g class="cls-4"><g class="cls-5"><g class="cls-6"><line class="cls-3" x1="57.29" x2="57.29" y2="294"/></g></g></g><g class="cls-4"><g class="cls-7"><g class="cls-7"><line class="cls-3" x1="61.69" x2="61.69" y2="294"/></g></g></g><g class="cls-4"><g class="cls-8"><g class="cls-9"><line class="cls-3" x1="66.08" x2="66.08" y2="294"/></g></g></g><g class="cls-4"><g class="cls-10"><g class="cls-11"><line class="cls-3" x1="70.48" x2="70.48" y2="294"/></g></g></g><g class="cls-4"><g class="cls-12"><g class="cls-13"><line class="cls-3" x1="74.88" x2="74.88" y2="294"/></g></g></g><g class="cls-4"><g class="cls-14"><g class="cls-15"><line class="cls-3" x1="79.28" x2="79.28" y2="294"/></g></g></g><g class="cls-4"><g class="cls-16"><g class="cls-16"><line class="cls-3" x1="83.67" x2="83.67" y2="294"/></g></g></g><g class="cls-4"><g class="cls-17"><g class="cls-18"><line class="cls-3" x1="88.07" x2="88.07" y2="294"/></g></g></g><g class="cls-4"><g class="cls-19"><g class="cls-20"><line class="cls-3" x1="92.47" x2="92.47" y2="294"/></g></g></g><g class="cls-4"><g class="cls-21"><g class="cls-22"><line class="cls-3" x1="96.87" x2="96.87" y2="294"/></g></g></g><g class="cls-4"><g class="cls-23"><g class="cls-23"><line class="cls-3" x1="101.26" x2="101.26" y2="294"/></g></g></g><g class="cls-4"><g class="cls-24"><g class="cls-25"><line class="cls-3" x1="4.71" x2="4.71" y2="294"/></g></g></g><g class="cls-4"><g class="cls-26"><g class="cls-27"><line class="cls-3" x1="9.09" x2="9.09" y2="294"/></g></g></g><g class="cls-4"><g class="cls-28"><g class="cls-29"><line class="cls-3" x1="13.47" x2="13.47" y2="294"/></g></g></g><g class="cls-4"><g class="cls-30"><g class="cls-31"><line class="cls-3" x1="17.85" x2="17.85" y2="294"/></g></g></g><g class="cls-4"><g class="cls-32"><g class="cls-32"><line class="cls-3" x1="22.23" x2="22.23" y2="294"/></g></g></g><g class="cls-4"><g class="cls-33"><g class="cls-34"><line class="cls-3" x1="26.61" x2="26.61" y2="294"/></g></g></g><g class="cls-4"><g class="cls-35"><g class="cls-36"><line class="cls-3" x1="30.99" x2="30.99" y2="294"/></g></g></g><g class="cls-4"><g class="cls-37"><g class="cls-38"><line class="cls-3" x1="35.37" x2="35.37" y2="294"/></g></g></g><g class="cls-4"><g class="cls-39"><g class="cls-39"><line class="cls-3" x1="39.75" x2="39.75" y2="294"/></g></g></g><g class="cls-4"><g class="cls-40"><g class="cls-40"><line class="cls-3" x1="44.13" x2="44.13" y2="294"/></g></g></g><g class="cls-4"><g class="cls-41"><g class="cls-41"><line class="cls-3" x1="48.51" x2="48.51" y2="294"/></g></g></g><g class="cls-4"><g class="cls-42"><g class="cls-42"><line class="cls-3" x1="110.06" x2="110.06" y2="294"/></g></g></g><g class="cls-4"><g class="cls-43"><g class="cls-43"><line class="cls-3" x1="114.46" x2="114.46" y2="294"/></g></g></g><g class="cls-4"><g class="cls-44"><g class="cls-44"><line class="cls-3" x1="118.85" x2="118.85" y2="294"/></g></g></g><g class="cls-4"><g class="cls-45"><g class="cls-45"><line class="cls-3" x1="123.25" x2="123.25" y2="294"/></g></g></g><g class="cls-4"><g class="cls-46"><g class="cls-46"><line class="cls-3" x1="127.65" x2="127.65" y2="294"/></g></g></g><g class="cls-4"><g class="cls-47"><g class="cls-47"><line class="cls-3" x1="132.05" x2="132.05" y2="294"/></g></g></g><g class="cls-4"><g class="cls-48"><g class="cls-48"><line class="cls-3" x1="136.44" x2="136.44" y2="294"/></g></g></g><g class="cls-4"><g class="cls-49"><g class="cls-49"><line class="cls-3" x1="140.84" x2="140.84" y2="294"/></g></g></g><g class="cls-4"><g class="cls-50"><g class="cls-50"><line class="cls-3" x1="145.24" x2="145.24" y2="294"/></g></g></g><g class="cls-4"><g class="cls-51"><g class="cls-51"><line class="cls-3" x1="149.64" x2="149.64" y2="294"/></g></g></g><g class="cls-4"><g class="cls-52"><g class="cls-52"><line class="cls-3" x1="154.04" x2="154.04" y2="294"/></g></g></g><g class="cls-4"><g class="cls-53"><g class="cls-53"><line class="cls-3" x1="162.83" x2="162.83" y2="294"/></g></g></g><g class="cls-4"><g class="cls-54"><g class="cls-54"><line class="cls-3" x1="167.23" x2="167.23" y2="294"/></g></g></g><g class="cls-4"><g class="cls-55"><g class="cls-55"><line class="cls-3" x1="171.63" x2="171.63" y2="294"/></g></g></g><g class="cls-4"><g class="cls-56"><g class="cls-56"><line class="cls-3" x1="176.02" x2="176.02" y2="294"/></g></g></g><g class="cls-4"><g class="cls-57"><g class="cls-57"><line class="cls-3" x1="180.42" x2="180.42" y2="294"/></g></g></g><g class="cls-4"><g class="cls-58"><g class="cls-58"><line class="cls-3" x1="184.82" x2="184.82" y2="294"/></g></g></g><g class="cls-4"><g class="cls-59"><g class="cls-59"><line class="cls-3" x1="189.22" x2="189.22" y2="294"/></g></g></g><g class="cls-4"><g class="cls-60"><g class="cls-60"><line class="cls-3" x1="193.61" x2="193.61" y2="294"/></g></g></g><g class="cls-4"><g class="cls-61"><g class="cls-61"><line class="cls-3" x1="198.01" x2="198.01" y2="294"/></g></g></g><g class="cls-4"><g class="cls-62"><g class="cls-62"><line class="cls-3" x1="202.41" x2="202.41" y2="294"/></g></g></g><g class="cls-4"><g class="cls-63"><g class="cls-63"><line class="cls-3" x1="206.81" x2="206.81" y2="294"/></g></g></g><g class="cls-4"><g class="cls-64"><g class="cls-64"><line class="cls-3" x1="215.6" x2="215.6" y2="294"/></g></g></g><g class="cls-4"><g class="cls-65"><g class="cls-65"><line class="cls-3" x1="220" x2="220" y2="294"/></g></g></g><g class="cls-4"><g class="cls-66"><g class="cls-66"><line class="cls-3" x1="224.4" x2="224.4" y2="294"/></g></g></g><g class="cls-4"><g class="cls-67"><g class="cls-67"><line class="cls-3" x1="228.79" x2="228.79" y2="294"/></g></g></g><g class="cls-4"><g class="cls-68"><g class="cls-68"><line class="cls-3" x1="233.19" x2="233.19" y2="294"/></g></g></g><g class="cls-4"><g class="cls-69"><g class="cls-69"><line class="cls-3" x1="237.59" x2="237.59" y2="294"/></g></g></g><g class="cls-4"><g class="cls-70"><g class="cls-70"><line class="cls-3" x1="241.99" x2="241.99" y2="294"/></g></g></g><g class="cls-4"><g class="cls-71"><g class="cls-71"><line class="cls-3" x1="246.39" x2="246.39" y2="294"/></g></g></g><g class="cls-4"><g class="cls-72"><g class="cls-72"><line class="cls-3" x1="250.78" x2="250.78" y2="294"/></g></g></g><g class="cls-4"><g class="cls-73"><g class="cls-73"><line class="cls-3" x1="255.18" x2="255.18" y2="294"/></g></g></g><g class="cls-4"><g class="cls-74"><g class="cls-74"><line class="cls-3" x1="259.58" x2="259.58" y2="294"/></g></g></g><g class="cls-4"><g class="cls-75"><g class="cls-75"><line class="cls-3" x1="268.37" x2="268.37" y2="294"/></g></g></g><g class="cls-4"><g class="cls-76"><g class="cls-76"><line class="cls-3" x1="272.77" x2="272.77" y2="294"/></g></g></g><g class="cls-4"><g class="cls-77"><g class="cls-77"><line class="cls-3" x1="277.17" x2="277.17" y2="294"/></g></g></g><g class="cls-4"><g class="cls-78"><g class="cls-78"><line class="cls-3" x1="281.57" x2="281.57" y2="294"/></g></g></g><g class="cls-4"><g class="cls-79"><g class="cls-79"><line class="cls-3" x1="285.96" x2="285.96" y2="294"/></g></g></g><g class="cls-4"><g class="cls-80"><g class="cls-80"><line class="cls-3" x1="290.36" x2="290.36" y2="294"/></g></g></g><g class="cls-4"><g class="cls-81"><g class="cls-81"><line class="cls-3" x1="294.76" x2="294.76" y2="294"/></g></g></g><g class="cls-4"><g class="cls-82"><g class="cls-82"><line class="cls-3" x1="299.16" x2="299.16" y2="294"/></g></g></g><g class="cls-4"><g class="cls-83"><g class="cls-83"><line class="cls-3" x1="303.55" x2="303.55" y2="294"/></g></g></g><g class="cls-4"><g class="cls-84"><g class="cls-84"><line class="cls-3" x1="307.95" x2="307.95" y2="294"/></g></g></g><g class="cls-4"><g class="cls-85"><g class="cls-85"><line class="cls-3" x1="312.35" x2="312.35" y2="294"/></g></g></g><g class="cls-4"><g class="cls-86"><g class="cls-86"><line class="cls-3" x1="321.13" x2="321.13" y2="294"/></g></g></g><g class="cls-4"><g class="cls-87"><g class="cls-87"><line class="cls-3" x1="325.51" x2="325.51" y2="294"/></g></g></g><g class="cls-4"><g class="cls-88"><g class="cls-88"><line class="cls-3" x1="329.89" x2="329.89" y2="294"/></g></g></g><g class="cls-4"><g class="cls-89"><g class="cls-89"><line class="cls-3" x1="334.28" x2="334.28" y2="294"/></g></g></g><g class="cls-4"><g class="cls-90"><g class="cls-90"><line class="cls-3" x1="338.66" x2="338.66" y2="294"/></g></g></g><g class="cls-4"><g class="cls-91"><g class="cls-91"><line class="cls-3" x1="343.04" x2="343.04" y2="294"/></g></g></g><g class="cls-4"><g class="cls-92"><g class="cls-92"><line class="cls-3" x1="347.42" x2="347.42" y2="294"/></g></g></g><g class="cls-4"><g class="cls-93"><g class="cls-93"><line class="cls-3" x1="351.8" x2="351.8" y2="294"/></g></g></g><g class="cls-4"><g class="cls-94"><g class="cls-94"><line class="cls-3" x1="356.19" x2="356.19" y2="294"/></g></g></g><g class="cls-4"><g class="cls-95"><g class="cls-95"><line class="cls-3" x1="360.57" x2="360.57" y2="294"/></g></g></g><g class="cls-4"><g class="cls-96"><g class="cls-96"><line class="cls-3" x1="364.95" x2="364.95" y2="294"/></g></g></g><line class="cls-3" x1="105.66" x2="105.66" y2="294"/><line class="cls-3" x1="158.43" x2="158.43" y2="294"/><line class="cls-3" x1="211.2" x2="211.2" y2="294"/><line class="cls-3" x1="263.98" x2="263.98" y2="294"/><line class="cls-3" x1="316.75" x2="316.75" y2="294"/><line class="cls-3" x1="369.33" y1="225.11" x2="0.33" y2="225.11"/><line class="cls-3" x1="369.33" y1="215.32" x2="0.33" y2="215.32"/><line class="cls-3" x1="369.33" y1="205.53" x2="0.33" y2="205.53"/><line class="cls-3" x1="369.33" y1="195.74" x2="0.33" y2="195.74"/><line class="cls-3" x1="369.33" y1="185.95" x2="0.33" y2="185.95"/><line class="cls-3" x1="369.33" y1="176.16" x2="0.33" y2="176.16"/><line class="cls-3" x1="369.33" y1="166.37" x2="0.33" y2="166.37"/><line class="cls-3" x1="369.33" y1="156.58" x2="0.33" y2="156.58"/><line class="cls-3" x1="369.33" y1="146.79" x2="0.33" y2="146.79"/><line class="cls-3" x1="369.33" y1="137" x2="0.33" y2="137"/><line class="cls-3" x1="369.33" y1="127.21" x2="0.33" y2="127.21"/><line class="cls-3" x1="369.33" y1="117.41" x2="0.33" y2="117.41"/><line class="cls-3" x1="369.33" y1="107.62" x2="0.33" y2="107.62"/><line class="cls-3" x1="369.33" y1="97.83" x2="0.33" y2="97.83"/><line class="cls-3" x1="369.33" y1="88.04" x2="0.33" y2="88.04"/><line class="cls-3" x1="369.33" y1="78.25" x2="0.33" y2="78.25"/><line class="cls-3" x1="369.33" y1="48.88" x2="0.33" y2="48.88"/><line class="cls-3" x1="369.33" y1="19.51" x2="0.33" y2="19.51"/><line class="cls-3" x1="369.33" y1="9.72" x2="0.33" y2="9.72"/><line class="cls-3" x1="369.33" y1="29.3" x2="0.33" y2="29.3"/><line class="cls-3" x1="369.33" y1="39.09" x2="0.33" y2="39.09"/><line class="cls-3" x1="369.33" y1="58.67" x2="0.33" y2="58.67"/><line class="cls-3" x1="369.33" y1="68.46" x2="0.33" y2="68.46"/><line class="cls-3" x1="369.33" y1="234.9" x2="0.33" y2="234.9"/><line class="cls-3" x1="369.33" y1="244.7" x2="0.33" y2="244.7"/><line class="cls-3" x1="369.33" y1="254.49" x2="0.33" y2="254.49"/><line class="cls-3" x1="369.33" y1="264.28" x2="0.33" y2="264.28"/><line class="cls-3" x1="369.33" y1="274.07" x2="0.33" y2="274.07"/><line class="cls-3" x1="369.33" y1="283.86" x2="0.33" y2="283.86"/></g><path class="cls-97" d="M1,.67H368.67V293.34H1ZM.33,294h369V0H.33Z"/><g class="cls-2"><polyline class="cls-98" points="369.92 163.81 263.76 179.28 211.14 202.12 158.53 223.84 105.91 257.08 53.33 275.46 0.33 294 53.33 271.05 105.91 247.91 158.53 208.01 211.14 190.34 263.76 175.6 369.92 145.49"/><polyline class="cls-99" points="369.92 110.77 263.76 136.11 211.14 156.14 158.53 181.49 105.91 234.53 53.33 263.29 0.33 294 53.26 250.24 105.91 216.85 158.53 159.56 211.14 131.4 263.76 96.04 369.92 43.13"/></g></g></g></g></svg>