<svg xmlns="http://www.w3.org/2000/svg" xmlns:xlink="http://www.w3.org/1999/xlink" viewBox="0 0 331.4 331.98"><defs><style>.cls-1{fill:none;}.cls-2{clip-path:url(#clip-path);}</style><clipPath id="clip-path" transform="translate(0 0)"><rect class="cls-1" width="331.4" height="331.98"/></clipPath></defs><title>Asset 3</title><g id="Layer_2" data-name="Layer 2"><g id="Layer_1-2" data-name="Layer 1"><g class="cls-2"><path d="M165.41,124a4,4,0,1,1,4-4,4,4,0,0,1-4,4" transform="translate(0 0)"/><path d="M163,252.39V282a2.4,2.4,0,1,0,4.8,0v-29.6a2.4,2.4,0,0,0-4.8,0" transform="translate(0 0)"/><path d="M165.41,145.58a8,8,0,0,0-8,8v24.8a8,8,0,0,0,16,0v-24.8a8,8,0,0,0-8-8" transform="translate(0 0)"/><path d="M157.41,8a8,8,0,1,1,8,8,8,8,0,0,1-8-8" transform="translate(0 0)"/><path d="M261.94,11.17l0,.06a1.27,1.27,0,0,1-2.2,0l-.29-.51a1.3,1.3,0,0,0-2.2,0,1.23,1.23,0,0,0,0,1.33l.3.52a1.27,1.27,0,0,1-1.07,1.92h-.08a1.27,1.27,0,0,1-1.06-1.92l.29-.52a1.29,1.29,0,0,0-1-1.93,1.26,1.26,0,0,0-1.17.64l-.3.53a1.28,1.28,0,0,1-2.2,0l0,0,0,0a1.27,1.27,0,0,1,1.13-1.88h.59a1.3,1.3,0,0,0,1.15-1.88,1.25,1.25,0,0,0-1.14-.69h-.6a1.27,1.27,0,0,1-1.13-1.87l0-.07a1.28,1.28,0,0,1,2.2,0l.29.51a1.3,1.3,0,0,0,2.2.06,1.23,1.23,0,0,0,0-1.33l-.3-.52a1.28,1.28,0,0,1,1.07-1.93h.08a1.28,1.28,0,0,1,1.06,1.93l-.29.51a1.29,1.29,0,0,0,1,1.93,1.26,1.26,0,0,0,1.17-.64l.3-.53a1.28,1.28,0,0,1,2.2,0l0,0,0,0a1.27,1.27,0,0,1-1.13,1.88h-.6a1.25,1.25,0,0,0-1.14.69,1.3,1.3,0,0,0,1.15,1.88h.59a1.28,1.28,0,0,1,1.13,1.88M256.37,0a8,8,0,1,0,8,8,8,8,0,0,0-8-8" transform="translate(0 0)"/><path d="M310,11.17l0,.06a1.27,1.27,0,0,1-2.2,0l-.29-.51a1.3,1.3,0,0,0-2.2,0,1.23,1.23,0,0,0,0,1.33l.3.52a1.27,1.27,0,0,1-1.07,1.92h-.08a1.27,1.27,0,0,1-1.06-1.92l.29-.52a1.29,1.29,0,0,0-1-1.93,1.26,1.26,0,0,0-1.17.64l-.3.53a1.28,1.28,0,0,1-2.2,0l0,0,0,0A1.27,1.27,0,0,1,300,9.29h.59a1.3,1.3,0,0,0,1.15-1.88,1.25,1.25,0,0,0-1.14-.69H300a1.27,1.27,0,0,1-1.13-1.87l0-.07a1.28,1.28,0,0,1,2.2,0l.3.51a1.29,1.29,0,0,0,2.19.06,1.23,1.23,0,0,0,0-1.33l-.3-.52a1.28,1.28,0,0,1,1.07-1.93h.08a1.28,1.28,0,0,1,1.06,1.93l-.29.51a1.29,1.29,0,0,0,1,1.93,1.25,1.25,0,0,0,1.16-.64l.3-.53a1.28,1.28,0,0,1,2.2,0l0,0,0,0a1.27,1.27,0,0,1-1.13,1.88h-.6a1.25,1.25,0,0,0-1.14.69,1.3,1.3,0,0,0,1.15,1.88h.59A1.27,1.27,0,0,1,310,11.17M304.41,0a8,8,0,1,0,8,8,8,8,0,0,0-8-8" transform="translate(0 0)"/><path d="M32,11.17l0,.06a1.28,1.28,0,0,1-2.21,0l-.29-.51a1.3,1.3,0,0,0-2.2,0,1.27,1.27,0,0,0,0,1.33l.31.52a1.28,1.28,0,0,1-1.08,1.92h-.08a1.28,1.28,0,0,1-1.06-1.92l.3-.52A1.3,1.3,0,0,0,24.56,10a1.26,1.26,0,0,0-1.17.64l-.3.53a1.28,1.28,0,0,1-2.2,0l0,0,0,0A1.27,1.27,0,0,1,22,9.29h.6a1.29,1.29,0,0,0,1.14-1.88,1.24,1.24,0,0,0-1.13-.69H22a1.27,1.27,0,0,1-1.13-1.87l0-.07a1.28,1.28,0,0,1,2.2,0l.3.51a1.29,1.29,0,0,0,2.19.06,1.23,1.23,0,0,0,0-1.33l-.3-.52A1.29,1.29,0,0,1,26.39,1.6h.08a1.29,1.29,0,0,1,1.06,1.93l-.3.51A1.29,1.29,0,0,0,28.28,6a1.24,1.24,0,0,0,1.16-.64l.31-.53a1.27,1.27,0,0,1,2.19,0l0,0,0,0a1.28,1.28,0,0,1-1.14,1.88h-.6a1.25,1.25,0,0,0-1.14.69,1.3,1.3,0,0,0,1.15,1.88h.59A1.28,1.28,0,0,1,32,11.17M26.42,0a8,8,0,1,0,8,8,8,8,0,0,0-8-8" transform="translate(0 0)"/><path d="M80,11.17l0,.06a1.27,1.27,0,0,1-2.2,0l-.3-.51a1.29,1.29,0,0,0-2.19,0,1.23,1.23,0,0,0,0,1.33l.3.52a1.28,1.28,0,0,1-1.08,1.92H74.4a1.28,1.28,0,0,1-1.06-1.92l.3-.52a1.29,1.29,0,0,0-1-1.93,1.24,1.24,0,0,0-1.16.64l-.31.53a1.27,1.27,0,0,1-2.19,0l0,0,0,0A1.28,1.28,0,0,1,70,9.29h.6a1.3,1.3,0,0,0,1.15-1.88,1.25,1.25,0,0,0-1.14-.69H70a1.27,1.27,0,0,1-1.14-1.87l0-.07a1.28,1.28,0,0,1,2.2,0l.3.51a1.3,1.3,0,0,0,2.2.06,1.25,1.25,0,0,0,0-1.33l-.3-.52A1.29,1.29,0,0,1,74.42,1.6h.08a1.29,1.29,0,0,1,1.06,1.93l-.3.51a1.29,1.29,0,0,0,1,1.93,1.26,1.26,0,0,0,1.17-.64l.3-.53a1.28,1.28,0,0,1,2.2,0l0,0,0,0a1.27,1.27,0,0,1-1.13,1.88h-.61a1.22,1.22,0,0,0-1.13.69,1.29,1.29,0,0,0,1.14,1.88h.59A1.28,1.28,0,0,1,80,11.17M74.45,0a8,8,0,1,0,8,8,8,8,0,0,0-8-8" transform="translate(0 0)"/><path d="M317.83,162.83l0-.07a1.28,1.28,0,0,1,2.2,0l.3.51a1.28,1.28,0,0,0,2.19.06,1.23,1.23,0,0,0,0-1.33l-.3-.52a1.27,1.27,0,0,1,1.07-1.92h.08a1.27,1.27,0,0,1,1.06,1.92l-.29.51a1.29,1.29,0,0,0,1.05,1.93,1.22,1.22,0,0,0,1.16-.64l.3-.52a1.28,1.28,0,0,1,2.2,0l0,0,0,0a1.28,1.28,0,0,1-1.13,1.89h-.59a1.29,1.29,0,0,0-1.15,1.87,1.23,1.23,0,0,0,1.14.69h.6a1.27,1.27,0,0,1,1.13,1.88l0,.07a1.28,1.28,0,0,1-2.21,0l-.29-.51a1.29,1.29,0,0,0-2.2-.06,1.23,1.23,0,0,0,0,1.33l.3.52a1.27,1.27,0,0,1-1.07,1.92h-.08a1.27,1.27,0,0,1-1.06-1.92l.29-.51a1.29,1.29,0,0,0-1-1.93,1.22,1.22,0,0,0-1.17.64l-.3.52a1.28,1.28,0,0,1-2.2,0l0,0,0,0a1.27,1.27,0,0,1,1.13-1.88h.6a1.25,1.25,0,0,0,1.14-.69,1.29,1.29,0,0,0-1.15-1.87H319a1.28,1.28,0,0,1-1.13-1.88M323.4,174a8,8,0,1,0-8-8,8,8,0,0,0,8,8" transform="translate(0 0)"/><path d="M50.43,52.39A2.4,2.4,0,1,0,48,50a2.41,2.41,0,0,0,2.4,2.4" transform="translate(0 0)"/><path d="M121.78,52.39a2.4,2.4,0,1,0-2.4-2.4,2.41,2.41,0,0,0,2.4,2.4" transform="translate(0 0)"/><path d="M226.65,87.39a2.4,2.4,0,1,0-2.4-2.4,2.41,2.41,0,0,0,2.4,2.4" transform="translate(0 0)"/><path d="M226.65,104.89a2.4,2.4,0,1,0-2.4-2.4,2.41,2.41,0,0,0,2.4,2.4" transform="translate(0 0)"/><path d="M226.65,122.39a2.4,2.4,0,1,0-2.4-2.4,2.41,2.41,0,0,0,2.4,2.4" transform="translate(0 0)"/><path d="M226.65,69.89a2.4,2.4,0,1,0-2.4-2.4,2.41,2.41,0,0,0,2.4,2.4" transform="translate(0 0)"/><path d="M226.65,52.39a2.4,2.4,0,1,0-2.4-2.4,2.41,2.41,0,0,0,2.4,2.4" transform="translate(0 0)"/><path d="M2.4,52.39A2.4,2.4,0,1,0,0,50a2.4,2.4,0,0,0,2.4,2.4" transform="translate(0 0)"/><path d="M80.12,327.13l0,.07a1.28,1.28,0,0,1-2.2,0l-.3-.51a1.29,1.29,0,0,0-2.19-.06,1.23,1.23,0,0,0,0,1.33l.3.52a1.28,1.28,0,0,1-1.08,1.92H74.5a1.28,1.28,0,0,1-1.06-1.92l.3-.51a1.29,1.29,0,0,0-1-1.93,1.21,1.21,0,0,0-1.16.64l-.31.52a1.27,1.27,0,0,1-2.19,0l0,0,0,0a1.29,1.29,0,0,1,1.13-1.89h.6a1.29,1.29,0,0,0,1.15-1.87,1.23,1.23,0,0,0-1.14-.69h-.6A1.28,1.28,0,0,1,69,320.81l0-.07a1.28,1.28,0,0,1,2.2,0l.3.51a1.29,1.29,0,0,0,2.2.06,1.25,1.25,0,0,0,0-1.33l-.3-.52a1.28,1.28,0,0,1,1.08-1.92h.08a1.28,1.28,0,0,1,1.06,1.92l-.3.51a1.29,1.29,0,0,0,1,1.93,1.22,1.22,0,0,0,1.17-.64l.3-.52a1.28,1.28,0,0,1,2.2,0l0,0,0,0A1.27,1.27,0,0,1,79,322.69h-.61a1.22,1.22,0,0,0-1.13.69,1.29,1.29,0,0,0,1.14,1.87H79a1.28,1.28,0,0,1,1.14,1.88M74.55,316a8,8,0,1,0,8,8,8,8,0,0,0-8-8" transform="translate(0 0)"/><path d="M128.15,327.13l0,.07a1.28,1.28,0,0,1-2.2,0l-.3-.51a1.28,1.28,0,0,0-2.19-.06,1.23,1.23,0,0,0,0,1.33l.3.52a1.27,1.27,0,0,1-1.07,1.92h-.08a1.27,1.27,0,0,1-1.06-1.92l.29-.51a1.29,1.29,0,0,0-1-1.93,1.22,1.22,0,0,0-1.16.64l-.3.52a1.28,1.28,0,0,1-2.2,0l0,0,0,0a1.28,1.28,0,0,1,1.13-1.89h.59a1.29,1.29,0,0,0,1.15-1.87,1.23,1.23,0,0,0-1.14-.69h-.6a1.27,1.27,0,0,1-1.13-1.88l0-.07a1.28,1.28,0,0,1,2.21,0l.29.51a1.29,1.29,0,0,0,2.2.06,1.23,1.23,0,0,0,0-1.33l-.3-.52a1.27,1.27,0,0,1,1.07-1.92h.08a1.27,1.27,0,0,1,1.06,1.92l-.29.51a1.29,1.29,0,0,0,1,1.93,1.22,1.22,0,0,0,1.17-.64l.3-.52a1.28,1.28,0,0,1,2.2,0l0,0,0,0a1.27,1.27,0,0,1-1.13,1.88h-.6a1.25,1.25,0,0,0-1.14.69,1.29,1.29,0,0,0,1.15,1.87H127a1.28,1.28,0,0,1,1.13,1.88M122.58,316a8,8,0,1,0,8,8,8,8,0,0,0-8-8" transform="translate(0 0)"/><path d="M232.22,327.13l0,.07a1.28,1.28,0,0,1-2.2,0l-.29-.51a1.29,1.29,0,0,0-2.2-.06,1.23,1.23,0,0,0,0,1.33l.3.52a1.27,1.27,0,0,1-1.07,1.92h-.08a1.27,1.27,0,0,1-1.06-1.92l.29-.51a1.29,1.29,0,0,0-1-1.93,1.22,1.22,0,0,0-1.17.64l-.3.52a1.28,1.28,0,0,1-2.2,0l0,0,0,0a1.28,1.28,0,0,1,1.13-1.89h.59a1.29,1.29,0,0,0,1.15-1.87,1.23,1.23,0,0,0-1.14-.69h-.6a1.27,1.27,0,0,1-1.13-1.88l0-.07a1.28,1.28,0,0,1,2.2,0l.29.51a1.29,1.29,0,0,0,2.2.06,1.23,1.23,0,0,0,0-1.33l-.3-.52a1.27,1.27,0,0,1,1.07-1.92h.08a1.27,1.27,0,0,1,1.06,1.92l-.29.51a1.29,1.29,0,0,0,1,1.93,1.22,1.22,0,0,0,1.17-.64l.3-.52a1.28,1.28,0,0,1,2.2,0l0,0,0,0a1.27,1.27,0,0,1-1.13,1.88h-.6a1.25,1.25,0,0,0-1.14.69,1.29,1.29,0,0,0,1.15,1.87h.59a1.27,1.27,0,0,1,1.13,1.88M226.65,316a8,8,0,1,0,8,8,8,8,0,0,0-8-8" transform="translate(0 0)"/><path d="M2.4,326.37A2.4,2.4,0,1,0,0,324a2.39,2.39,0,0,0,2.4,2.4" transform="translate(0 0)"/><path d="M280.39,326.37A2.4,2.4,0,1,0,278,324a2.39,2.39,0,0,0,2.4,2.4" transform="translate(0 0)"/><path d="M165.41,208a4,4,0,1,0,4,4,4,4,0,0,0-4-4" transform="translate(0 0)"/></g></g></g></svg>