<svg xmlns="http://www.w3.org/2000/svg" xmlns:xlink="http://www.w3.org/1999/xlink" viewBox="0 0 186 456"><defs><style>.cls-1{fill:none;}.cls-2{clip-path:url(#clip-path);}</style><clipPath id="clip-path"><rect class="cls-1" width="186" height="456"/></clipPath></defs><title>Asset 12</title><g id="Layer_2" data-name="Layer 2"><g id="Layer_1-2" data-name="Layer 1"><g class="cls-2"><path d="M95,24V2a2,2,0,0,0-4,0V24a2,2,0,0,0,4,0"/><path d="M95,206a2,2,0,1,1-2-2,2,2,0,0,1,2,2"/><path d="M95,250a2,2,0,1,0-2,2,2,2,0,0,0,2-2"/><path d="M95,432v22a2,2,0,0,1-4,0V432a2,2,0,0,1,4,0"/><path d="M4,239V217a2,2,0,0,0-4,0v22a2,2,0,0,0,4,0"/><path d="M182,239V217a2,2,0,0,1,4,0v22a2,2,0,0,1-4,0"/></g></g></g></svg>