<svg xmlns="http://www.w3.org/2000/svg" xmlns:xlink="http://www.w3.org/1999/xlink" viewBox="0 0 364 364"><defs><style>.cls-1{fill:none;}.cls-2{clip-path:url(#clip-path);}.cls-3{fill:#fff;}</style><clipPath id="clip-path" transform="translate(0 0)"><rect class="cls-1" width="364" height="364"/></clipPath></defs><title>Asset 3</title><g id="Layer_2" data-name="Layer 2"><g id="Layer_1-2" data-name="Layer 1"><g class="cls-2"><path class="cls-3" d="M356.09,0H7.91A7.91,7.91,0,0,0,0,7.91V356.09A7.91,7.91,0,0,0,7.91,364H356.09a7.91,7.91,0,0,0,7.91-7.91V7.91A7.91,7.91,0,0,0,356.09,0" transform="translate(0 0)"/><path d="M182,140a4,4,0,1,1,4-4,4,4,0,0,1-4,4" transform="translate(0 0)"/><path d="M179.6,268.4V298a2.4,2.4,0,1,0,4.8,0V268.4a2.4,2.4,0,0,0-4.8,0" transform="translate(0 0)"/><path d="M182,161.6a8,8,0,0,0-8,8v24.8a8,8,0,0,0,16,0V169.6a8,8,0,0,0-8-8" transform="translate(0 0)"/><path d="M174,24a8,8,0,1,1,8,8,8,8,0,0,1-8-8" transform="translate(0 0)"/><path d="M278.53,27.18l0,.07a1.28,1.28,0,0,1-2.2,0l-.3-.52a1.29,1.29,0,0,0-2.19-.05,1.23,1.23,0,0,0,0,1.33l.3.52A1.28,1.28,0,0,1,273,30.42h-.08a1.28,1.28,0,0,1-1.06-1.92l.3-.52a1.29,1.29,0,0,0-1-1.93,1.24,1.24,0,0,0-1.16.64l-.31.53a1.27,1.27,0,0,1-2.19,0l0,0,0,0a1.28,1.28,0,0,1,1.14-1.88h.59a1.29,1.29,0,0,0,1.15-1.87,1.23,1.23,0,0,0-1.14-.69h-.6a1.28,1.28,0,0,1-1.14-1.88l0-.07a1.28,1.28,0,0,1,2.21,0l.29.51a1.29,1.29,0,0,0,2.2.06,1.27,1.27,0,0,0,0-1.33l-.31-.52a1.29,1.29,0,0,1,1.08-1.93H273a1.28,1.28,0,0,1,1.06,1.92l-.3.51A1.29,1.29,0,0,0,274.82,22a1.26,1.26,0,0,0,1.17-.64l.3-.52a1.28,1.28,0,0,1,2.2,0l0,0,0,0a1.28,1.28,0,0,1-1.13,1.89h-.61a1.22,1.22,0,0,0-1.13.69,1.29,1.29,0,0,0,1.14,1.87h.6a1.28,1.28,0,0,1,1.13,1.88M273,16a8,8,0,1,0,8,8,8,8,0,0,0-8-8" transform="translate(0 0)"/><path d="M326.56,27.18l0,.07a1.28,1.28,0,0,1-2.2,0l-.3-.52a1.29,1.29,0,0,0-2.19-.05,1.23,1.23,0,0,0,0,1.33l.3.52A1.27,1.27,0,0,1,321,30.42H321a1.27,1.27,0,0,1-1.06-1.92l.29-.52a1.29,1.29,0,0,0-1.05-1.93,1.25,1.25,0,0,0-1.16.64l-.3.53a1.28,1.28,0,0,1-2.2,0l0,0,0,0a1.27,1.27,0,0,1,1.13-1.88h.59a1.29,1.29,0,0,0,1.15-1.87,1.23,1.23,0,0,0-1.14-.69h-.6a1.27,1.27,0,0,1-1.13-1.88l0-.07a1.28,1.28,0,0,1,2.2,0l.29.51a1.29,1.29,0,0,0,2.2.06,1.23,1.23,0,0,0,0-1.33l-.3-.52A1.28,1.28,0,0,1,321,17.61H321a1.27,1.27,0,0,1,1.06,1.92l-.29.51a1.29,1.29,0,0,0,1,1.93,1.26,1.26,0,0,0,1.17-.64l.3-.52a1.28,1.28,0,0,1,2.2,0l0,0,0,0a1.28,1.28,0,0,1-1.13,1.89h-.6a1.23,1.23,0,0,0-1.14.69,1.29,1.29,0,0,0,1.15,1.87h.59a1.28,1.28,0,0,1,1.13,1.88M321,16a8,8,0,1,0,8,8,8,8,0,0,0-8-8" transform="translate(0 0)"/><path d="M48.57,27.18l0,.07a1.28,1.28,0,0,1-2.2,0L46,26.7a1.3,1.3,0,0,0-2.2-.05,1.23,1.23,0,0,0,0,1.33l.3.52A1.27,1.27,0,0,1,43,30.42H43A1.27,1.27,0,0,1,41.9,28.5l.29-.52a1.29,1.29,0,0,0-1-1.93,1.26,1.26,0,0,0-1.17.64l-.3.53a1.28,1.28,0,0,1-2.2,0l0,0,0,0a1.27,1.27,0,0,1,1.13-1.88h.59a1.29,1.29,0,0,0,1.15-1.87,1.23,1.23,0,0,0-1.14-.69h-.6a1.27,1.27,0,0,1-1.13-1.88l0-.07a1.28,1.28,0,0,1,2.2,0l.29.51a1.29,1.29,0,0,0,2.2.06,1.23,1.23,0,0,0,0-1.33l-.3-.52A1.28,1.28,0,0,1,43,17.61h.08a1.27,1.27,0,0,1,1.06,1.92l-.29.51a1.29,1.29,0,0,0,1,1.93A1.25,1.25,0,0,0,46,21.34l.3-.52a1.28,1.28,0,0,1,2.2,0l0,0,0,0a1.28,1.28,0,0,1-1.13,1.89h-.6a1.23,1.23,0,0,0-1.14.69,1.29,1.29,0,0,0,1.15,1.87h.59a1.27,1.27,0,0,1,1.13,1.88M43,16a8,8,0,1,0,8,8,8,8,0,0,0-8-8" transform="translate(0 0)"/><path d="M96.6,27.18l0,.07a1.28,1.28,0,0,1-2.21,0l-.29-.52a1.3,1.3,0,0,0-2.2-.05,1.27,1.27,0,0,0,0,1.33l.3.52a1.27,1.27,0,0,1-1.07,1.92H91a1.28,1.28,0,0,1-1.06-1.92l.3-.52a1.3,1.3,0,0,0-1-1.93,1.26,1.26,0,0,0-1.17.64l-.3.53a1.28,1.28,0,0,1-2.2,0l0,0,0,0A1.27,1.27,0,0,1,86.6,25.3h.6a1.29,1.29,0,0,0,1.14-1.87,1.23,1.23,0,0,0-1.13-.69H86.6a1.28,1.28,0,0,1-1.13-1.88l0-.07a1.28,1.28,0,0,1,2.2,0l.3.51a1.29,1.29,0,0,0,2.19.06,1.23,1.23,0,0,0,0-1.33l-.3-.52A1.28,1.28,0,0,1,91,17.61h.07a1.28,1.28,0,0,1,1.07,1.92l-.3.51A1.29,1.29,0,0,0,92.9,22a1.25,1.25,0,0,0,1.16-.64l.31-.52a1.27,1.27,0,0,1,2.19,0l0,0,0,0a1.29,1.29,0,0,1-1.14,1.89h-.6a1.23,1.23,0,0,0-1.14.69,1.29,1.29,0,0,0,1.15,1.87h.59a1.27,1.27,0,0,1,1.13,1.88M91,16a8,8,0,1,0,8,8,8,8,0,0,0-8-8" transform="translate(0 0)"/><path d="M334.42,178.84l0-.07a1.28,1.28,0,0,1,2.2,0l.29.51a1.29,1.29,0,0,0,2.2.06,1.23,1.23,0,0,0,0-1.33l-.3-.52A1.27,1.27,0,0,1,340,175.6H340a1.27,1.27,0,0,1,1.06,1.92l-.29.51a1.29,1.29,0,0,0,1,1.93,1.22,1.22,0,0,0,1.17-.64l.3-.52a1.28,1.28,0,0,1,2.2,0l0,0,0,0a1.27,1.27,0,0,1-1.13,1.88h-.59a1.29,1.29,0,0,0-1.15,1.87,1.23,1.23,0,0,0,1.14.69h.6a1.28,1.28,0,0,1,1.13,1.88l0,.07a1.28,1.28,0,0,1-2.2,0l-.3-.51a1.28,1.28,0,0,0-2.19-.06,1.23,1.23,0,0,0,0,1.33l.3.52A1.27,1.27,0,0,1,340,188.4h-.08a1.27,1.27,0,0,1-1.06-1.92l.29-.51a1.29,1.29,0,0,0-1.05-1.93,1.22,1.22,0,0,0-1.16.64l-.3.52a1.28,1.28,0,0,1-2.2,0l0,0,0,0a1.27,1.27,0,0,1,1.13-1.88h.6a1.23,1.23,0,0,0,1.14-.69,1.29,1.29,0,0,0-1.15-1.87h-.59a1.27,1.27,0,0,1-1.13-1.88M340,190a8,8,0,1,0-8-8,8,8,0,0,0,8,8" transform="translate(0 0)"/><path d="M67,68.4a2.4,2.4,0,1,0-2.4-2.4A2.4,2.4,0,0,0,67,68.4" transform="translate(0 0)"/><path d="M138.37,68.4A2.4,2.4,0,1,0,136,66a2.4,2.4,0,0,0,2.4,2.4" transform="translate(0 0)"/><path d="M243.24,103.4a2.4,2.4,0,1,0-2.4-2.4,2.4,2.4,0,0,0,2.4,2.4" transform="translate(0 0)"/><path d="M243.24,120.9a2.4,2.4,0,1,0-2.4-2.4,2.4,2.4,0,0,0,2.4,2.4" transform="translate(0 0)"/><path d="M243.24,138.4a2.4,2.4,0,1,0-2.4-2.4,2.4,2.4,0,0,0,2.4,2.4" transform="translate(0 0)"/><path d="M243.24,85.9a2.4,2.4,0,1,0-2.4-2.4,2.4,2.4,0,0,0,2.4,2.4" transform="translate(0 0)"/><path d="M243.24,68.4a2.4,2.4,0,1,0-2.4-2.4,2.4,2.4,0,0,0,2.4,2.4" transform="translate(0 0)"/><path d="M19,68.4a2.4,2.4,0,1,0-2.4-2.4A2.4,2.4,0,0,0,19,68.4" transform="translate(0 0)"/><path d="M96.71,343.14l0,.07a1.28,1.28,0,0,1-2.21,0l-.29-.51a1.29,1.29,0,0,0-2.2-.06,1.27,1.27,0,0,0,0,1.33l.31.52a1.28,1.28,0,0,1-1.08,1.92h-.08A1.28,1.28,0,0,1,90,344.46l.3-.51a1.29,1.29,0,0,0-1-1.93,1.24,1.24,0,0,0-1.17.64l-.3.52a1.28,1.28,0,0,1-2.2,0l0,0,0,0a1.28,1.28,0,0,1,1.13-1.89h.6a1.29,1.29,0,0,0,1.14-1.87,1.24,1.24,0,0,0-1.13-.69H86.7a1.28,1.28,0,0,1-1.13-1.88l0-.07a1.28,1.28,0,0,1,2.2,0l.3.51a1.29,1.29,0,0,0,2.19.06,1.23,1.23,0,0,0,0-1.33l-.3-.52a1.28,1.28,0,0,1,1.08-1.92h.08a1.28,1.28,0,0,1,1.06,1.92L92,336a1.29,1.29,0,0,0,1,1.93,1.21,1.21,0,0,0,1.16-.64l.31-.52a1.27,1.27,0,0,1,2.19,0l0,0,0,0a1.28,1.28,0,0,1-1.14,1.88H95a1.25,1.25,0,0,0-1.14.69A1.29,1.29,0,0,0,95,341.26h.59a1.28,1.28,0,0,1,1.14,1.88M91.14,332a8,8,0,1,0,8,8,8,8,0,0,0-8-8" transform="translate(0 0)"/><path d="M144.74,343.14l0,.07a1.28,1.28,0,0,1-2.2,0l-.3-.51a1.29,1.29,0,0,0-2.19-.06,1.23,1.23,0,0,0,0,1.33l.3.52a1.28,1.28,0,0,1-1.08,1.92h-.08a1.28,1.28,0,0,1-1.06-1.92l.3-.51a1.29,1.29,0,0,0-1.05-1.93,1.23,1.23,0,0,0-1.16.64l-.31.52a1.27,1.27,0,0,1-2.19,0l0,0,0,0a1.29,1.29,0,0,1,1.14-1.89h.59a1.29,1.29,0,0,0,1.15-1.87,1.25,1.25,0,0,0-1.14-.69h-.6a1.28,1.28,0,0,1-1.14-1.88l0-.07a1.28,1.28,0,0,1,2.21,0l.29.51a1.29,1.29,0,0,0,2.2.06,1.25,1.25,0,0,0,0-1.33l-.3-.52a1.28,1.28,0,0,1,1.08-1.92h.08a1.28,1.28,0,0,1,1.06,1.92l-.3.51a1.29,1.29,0,0,0,1.05,1.93,1.22,1.22,0,0,0,1.17-.64l.3-.52a1.28,1.28,0,0,1,2.2,0l0,0,0,0a1.27,1.27,0,0,1-1.13,1.88H143a1.22,1.22,0,0,0-1.13.69,1.29,1.29,0,0,0,1.14,1.87h.59a1.28,1.28,0,0,1,1.14,1.88M139.17,332a8,8,0,1,0,8,8,8,8,0,0,0-8-8" transform="translate(0 0)"/><path d="M248.81,343.14l0,.07a1.28,1.28,0,0,1-2.2,0l-.3-.51a1.29,1.29,0,0,0-2.19-.06,1.23,1.23,0,0,0,0,1.33l.3.52a1.28,1.28,0,0,1-1.08,1.92h-.08a1.28,1.28,0,0,1-1.06-1.92l.3-.51a1.29,1.29,0,0,0-1.05-1.93,1.23,1.23,0,0,0-1.16.64l-.31.52a1.27,1.27,0,0,1-2.19,0l0,0,0,0a1.29,1.29,0,0,1,1.14-1.89h.59a1.29,1.29,0,0,0,1.15-1.87,1.25,1.25,0,0,0-1.14-.69h-.6a1.28,1.28,0,0,1-1.14-1.88l0-.07a1.28,1.28,0,0,1,2.21,0l.29.51a1.29,1.29,0,0,0,2.2.06,1.27,1.27,0,0,0,0-1.33l-.31-.52a1.28,1.28,0,0,1,1.08-1.92h.08a1.28,1.28,0,0,1,1.06,1.92l-.3.51a1.29,1.29,0,0,0,1,1.93,1.22,1.22,0,0,0,1.17-.64l.3-.52a1.28,1.28,0,0,1,2.2,0l0,0,0,0a1.27,1.27,0,0,1-1.13,1.88h-.61a1.24,1.24,0,0,0-1.13.69,1.29,1.29,0,0,0,1.14,1.87h.6a1.28,1.28,0,0,1,1.13,1.88M243.24,332a8,8,0,1,0,8,8,8,8,0,0,0-8-8" transform="translate(0 0)"/><path d="M19,342.38a2.4,2.4,0,1,0-2.4-2.4,2.39,2.39,0,0,0,2.4,2.4" transform="translate(0 0)"/><path d="M297,342.38a2.4,2.4,0,1,0-2.4-2.4,2.4,2.4,0,0,0,2.4,2.4" transform="translate(0 0)"/><path d="M182,224a4,4,0,1,0,4,4,4,4,0,0,0-4-4" transform="translate(0 0)"/></g></g></g></svg>